<?xml version="1.0" standalone="no"?>
<!DOCTYPE svg PUBLIC "-//W3C//DTD SVG 20010904//EN"
 "http://www.w3.org/TR/2001/REC-SVG-20010904/DTD/svg10.dtd">
<svg version="1.0" xmlns="http://www.w3.org/2000/svg"
 width="1280.000000pt" height="1280.000000pt" viewBox="0 0 1280.000000 1280.000000"
 preserveAspectRatio="xMidYMid meet">
<metadata>
Created by potrace 1.14, written by Peter Selinger 2001-2017
</metadata>
<g transform="translate(0.000000,1280.000000) scale(0.100000,-0.100000)"
fill="#000000" stroke="none">
<path d="M3657 12714 c-1 -1 -29 -4 -62 -7 -79 -8 -105 -13 -184 -41 -231 -81
-472 -257 -669 -492 -115 -136 -249 -378 -312 -564 -30 -90 -41 -122 -42 -127
0 -1 -6 -24 -14 -50 -12 -39 -46 -181 -59 -243 -4 -22 -14 -89 -20 -135 -3
-22 -8 -58 -12 -80 -8 -51 -8 -55 -18 -205 -17 -246 -8 -621 20 -870 4 -36 9
-76 10 -90 10 -91 17 -148 20 -170 3 -14 7 -43 10 -65 4 -22 10 -65 15 -95 10
-60 17 -102 25 -152 3 -18 11 -58 17 -88 6 -30 12 -62 13 -70 1 -8 15 -73 30
-145 15 -71 29 -139 31 -150 2 -11 18 -76 34 -145 17 -69 32 -132 34 -140 33
-140 85 -333 146 -540 51 -175 56 -195 64 -227 3 -10 11 -37 20 -61 8 -23 15
-46 16 -50 1 -14 103 -332 191 -596 50 -147 89 -269 87 -271 -2 -1 -25 -6 -53
-9 -97 -12 -155 -30 -235 -73 -207 -111 -393 -330 -538 -634 -58 -121 -140
-348 -158 -434 -1 -5 -9 -37 -18 -70 -8 -33 -18 -78 -21 -100 -3 -22 -11 -67
-16 -100 -27 -151 -29 -177 -33 -395 -2 -107 1 -226 5 -265 20 -174 29 -237
36 -255 3 -8 7 -30 10 -49 3 -19 11 -52 19 -73 7 -21 11 -38 9 -38 -2 0 14
-52 35 -115 85 -245 196 -435 381 -650 95 -111 273 -294 329 -339 40 -32 128
-75 147 -71 10 2 25 4 34 4 9 1 25 20 35 43 21 48 24 173 8 373 -17 211 -8
971 12 1070 3 11 6 47 9 80 4 53 11 105 20 156 2 9 6 40 10 70 3 30 8 62 11
72 3 10 7 30 9 45 2 15 11 59 20 97 9 39 18 77 20 86 10 50 70 210 102 276 52
105 128 188 188 207 17 5 23 0 34 -31 7 -21 16 -47 21 -58 5 -11 38 -99 75
-195 l66 -175 4 -163 c2 -89 7 -185 10 -212 3 -28 7 -74 10 -102 13 -124 20
-167 45 -313 13 -71 17 -93 24 -120 2 -11 12 -54 21 -95 36 -160 131 -475 170
-565 7 -16 16 -41 20 -55 4 -14 16 -45 27 -70 11 -25 24 -54 28 -65 110 -274
332 -663 518 -905 320 -415 615 -635 847 -632 109 1 185 56 226 161 28 71 31
230 6 337 -15 64 -98 311 -112 334 -3 6 -4 10 -1 10 3 0 94 -63 203 -141 242
-173 599 -410 753 -500 30 -18 57 -36 58 -41 2 -4 8 -8 13 -8 5 0 26 -11 47
-23 103 -65 344 -198 512 -282 255 -128 461 -217 660 -287 47 -16 92 -32 100
-35 8 -3 20 -7 26 -8 6 -2 48 -14 95 -28 161 -47 363 -91 477 -103 31 -3 89
-9 127 -13 39 -4 140 -7 225 -5 l155 2 106 -52 c249 -123 479 -309 656 -531
35 -44 70 -87 76 -95 54 -67 200 -309 254 -420 62 -127 128 -180 223 -180 55
0 126 14 175 35 17 6 57 23 89 35 132 52 274 242 322 430 26 101 16 256 -21
338 -54 121 -143 171 -320 178 -55 3 -116 7 -135 10 -19 3 -37 6 -40 6 -3 0
-36 16 -74 36 -76 40 -175 130 -227 207 -19 28 -37 52 -41 56 -9 6 -127 237
-150 294 -40 97 -63 158 -102 280 -39 117 -42 136 -36 190 7 64 4 274 -5 315
-2 14 -8 41 -11 60 -38 221 -173 479 -374 715 -44 52 -223 228 -279 275 -29
25 -59 50 -65 56 -23 22 -224 169 -257 189 -80 46 -133 78 -143 87 -6 5 -63
43 -126 84 -102 67 -316 222 -346 249 -6 5 -30 26 -54 45 -160 128 -329 291
-474 460 -87 101 -206 287 -266 414 -106 227 -140 391 -135 656 1 91 6 180 9
198 3 17 8 44 11 60 26 160 117 377 208 497 56 74 193 203 264 249 113 73 267
138 378 161 147 30 181 33 350 30 99 -2 196 -6 215 -9 86 -16 238 -48 265 -57
104 -32 258 -86 305 -107 174 -78 402 -197 408 -213 2 -5 8 -9 14 -9 21 0 367
-241 418 -291 8 -8 24 -21 36 -29 25 -18 118 -98 186 -160 55 -50 163 -120
187 -121 9 0 25 -2 36 -5 33 -6 72 16 86 49 30 73 4 238 -66 411 -41 101 -118
257 -163 331 -17 28 -39 64 -48 80 -22 40 -144 205 -207 280 -75 90 -281 291
-377 368 -87 70 -280 203 -361 250 -269 154 -641 294 -883 331 -21 4 -41 8
-45 10 -4 3 -34 8 -66 11 -33 4 -69 9 -80 12 -57 12 -182 18 -380 17 -192 0
-233 -3 -325 -23 -177 -39 -329 -95 -438 -164 -23 -15 -91 -45 -151 -66 -269
-96 -480 -241 -647 -444 -59 -73 -163 -234 -214 -330 l-45 -86 -16 37 c-16 36
-114 263 -184 427 -61 143 -160 385 -244 600 -46 116 -87 219 -91 230 -14 33
-89 231 -147 390 -333 905 -608 1825 -799 2670 -61 268 -103 467 -109 506 -10
74 -66 257 -101 336 -13 28 -24 54 -24 57 0 9 -85 150 -106 175 -123 151 -246
230 -399 256 -35 6 -134 12 -138 9z"/>
</g>
</svg>
