<?xml version="1.0" standalone="no"?>
<!DOCTYPE svg PUBLIC "-//W3C//DTD SVG 20010904//EN"
 "http://www.w3.org/TR/2001/REC-SVG-20010904/DTD/svg10.dtd">
<svg version="1.0" xmlns="http://www.w3.org/2000/svg"
 width="1024.000000pt" height="1024.000000pt" viewBox="0 0 1024.000000 1024.000000"
 preserveAspectRatio="xMidYMid meet">
<metadata>
Created by potrace 1.14, written by Peter Selinger 2001-2017
</metadata>
<g transform="translate(0.000000,1024.000000) scale(0.100000,-0.100000)"
fill="#000000" stroke="none">
<path d="M1246 9640 c-51 -13 -78 -27 -99 -50 -28 -30 -29 -35 -24 -93 9 -90
30 -187 65 -307 68 -233 67 -396 -3 -504 -27 -40 -56 -140 -62 -211 -11 -132
33 -395 87 -520 12 -27 39 -97 60 -155 20 -58 45 -121 55 -140 38 -75 167
-260 247 -354 45 -54 96 -114 111 -132 l29 -34 -55 -148 c-86 -230 -136 -405
-176 -612 -120 -632 -77 -1281 125 -1880 145 -430 349 -802 643 -1170 103
-129 411 -437 546 -544 546 -434 1172 -699 1875 -793 194 -26 698 -26 890 0
874 118 1623 489 2213 1096 532 548 884 1244 1006 1991 39 236 46 339 45 625
0 231 -4 308 -22 438 -29 202 -64 374 -108 529 -20 67 -38 132 -41 143 -3 16
8 29 53 60 103 71 286 223 409 340 66 63 135 123 154 133 39 21 120 146 147
226 21 61 14 148 -15 210 -30 61 -128 165 -193 204 -32 19 -92 42 -144 54 -49
12 -96 27 -105 35 -8 7 -29 15 -46 19 -35 7 -176 -9 -278 -31 -38 -8 -137 -26
-220 -40 -82 -14 -178 -32 -213 -39 -34 -8 -83 -17 -110 -20 l-47 -5 -85 105
c-187 230 -520 528 -790 706 -734 483 -1607 694 -2460 593 -225 -27 -490 -83
-610 -130 -47 -18 -114 -41 -148 -50 -35 -9 -71 -20 -80 -25 -10 -5 -66 -28
-127 -51 -385 -146 -780 -391 -1113 -689 l-113 -101 -80 64 c-45 35 -118 85
-163 110 -46 25 -128 82 -183 125 -56 43 -116 86 -135 95 -40 19 -127 43 -192
52 -43 7 -46 10 -53 44 -15 76 -3 580 16 639 28 92 -60 159 -254 193 -133 23
-142 23 -229 -1z m68 -232 c56 -36 112 -43 143 -17 10 9 33 22 52 29 30 12 37
11 76 -10 l42 -23 -5 -241 c-4 -204 -2 -255 13 -331 10 -49 22 -96 28 -102 5
-7 28 -13 51 -13 38 0 43 -3 71 -48 73 -115 191 -258 325 -393 173 -173 188
-187 351 -309 631 -473 1461 -750 2451 -820 215 -15 720 -12 967 5 958 68
1938 315 2921 735 80 34 163 71 184 81 51 24 57 24 114 -5 146 -75 224 -216
187 -342 -8 -28 -28 -65 -43 -80 -198 -199 -391 -379 -497 -463 -381 -304
-887 -572 -1422 -755 -87 -30 -180 -64 -208 -76 -102 -45 -192 -71 -302 -85
-61 -8 -153 -24 -203 -35 -378 -84 -920 -140 -1358 -140 -1155 0 -2240 307
-3029 857 -526 366 -889 852 -1019 1362 -60 237 -56 324 20 443 26 41 50 94
58 126 20 87 15 251 -10 362 -32 142 -72 324 -72 328 0 13 70 -13 114 -40z
m3982 -578 c647 -53 1229 -282 1737 -683 105 -83 407 -376 407 -394 0 -15
-134 -49 -286 -72 -72 -11 -185 -31 -251 -45 -217 -45 -295 -56 -523 -71 -343
-23 -1240 -38 -1430 -25 -251 19 -580 66 -765 110 -93 23 -215 50 -270 61 -55
11 -142 29 -194 39 -61 13 -133 38 -205 71 -121 56 -208 92 -391 163 -164 63
-159 58 -105 107 163 145 448 338 645 436 91 46 443 167 615 212 317 83 692
117 1016 91z m-3376 -180 c21 -11 67 -43 102 -72 87 -73 122 -98 203 -145 39
-23 112 -74 162 -115 51 -41 131 -97 178 -124 48 -27 130 -80 183 -117 113
-80 176 -111 402 -200 91 -36 217 -90 280 -120 149 -71 180 -81 346 -112 77
-15 238 -51 359 -80 132 -32 286 -62 385 -75 439 -56 394 -54 940 -52 769 3
1092 21 1406 82 110 22 261 49 335 60 165 25 305 64 502 137 333 123 496 167
792 213 66 10 142 23 169 30 112 25 43 -8 -254 -122 -868 -335 -1667 -522
-2550 -600 -225 -20 -882 -17 -1105 5 -1242 122 -2189 565 -2798 1309 -106
129 -108 134 -37 98z m570 -2100 c199 -114 455 -233 665 -310 50 -18 92 -34
94 -36 3 -2 -5 -14 -16 -27 -31 -34 -43 -82 -43 -177 0 -106 36 -258 79 -334
16 -29 73 -110 128 -180 54 -70 118 -155 142 -189 24 -34 67 -93 94 -132 28
-38 58 -90 68 -115 29 -75 94 -305 134 -475 61 -261 111 -439 174 -625 61
-182 160 -398 209 -459 16 -20 31 -54 35 -76 3 -22 13 -85 22 -140 42 -265 56
-404 53 -507 -2 -58 -6 -109 -9 -112 -3 -3 -60 10 -127 29 -489 141 -976 429
-1338 792 -103 103 -264 288 -303 347 -9 13 -41 60 -72 103 -156 219 -328 574
-412 853 -47 156 -101 399 -90 410 3 3 281 5 619 5 536 0 616 2 624 15 16 26
11 38 -32 84 -24 24 -81 89 -128 144 -47 56 -95 104 -108 108 -17 5 -43 -6
-100 -41 -42 -26 -91 -56 -108 -67 l-32 -19 -163 223 c-246 336 -319 432 -336
442 -25 14 -47 -4 -153 -129 -57 -66 -109 -127 -117 -135 -13 -13 -14 -3 -8
90 12 195 51 432 101 615 24 88 73 243 81 257 2 4 59 -31 126 -76 67 -46 178
-116 247 -156z m5620 -56 c0 -3 13 -72 30 -152 16 -81 36 -199 45 -262 14
-109 13 -116 -4 -130 -10 -8 -82 -96 -161 -195 -171 -214 -260 -327 -272 -340
-5 -5 -44 10 -101 40 -52 27 -100 46 -108 43 -15 -6 -86 -142 -116 -223 -8
-22 -19 -48 -24 -58 -5 -10 -7 -22 -4 -27 4 -6 155 -10 387 -10 l381 0 -7 -48
c-20 -149 -125 -498 -206 -683 -111 -253 -268 -511 -447 -734 -95 -119 -330
-354 -452 -451 -242 -195 -535 -366 -821 -482 -152 -61 -300 -107 -309 -95
-33 44 -85 131 -115 190 -35 70 -36 76 -36 181 0 173 47 324 129 412 23 25 57
74 76 111 18 36 63 103 100 150 37 46 87 119 113 161 25 43 64 99 85 125 59
71 184 263 211 324 26 60 91 264 101 319 8 48 92 332 118 400 11 30 28 66 37
80 9 14 34 57 54 96 20 39 68 105 105 147 38 43 88 106 111 141 28 44 65 82
116 120 40 31 81 68 91 83 22 33 22 117 0 158 -31 61 -140 144 -215 166 l-43
12 33 14 c62 26 313 112 402 138 112 33 404 148 566 225 120 56 150 67 150 54z
m-4694 -363 c23 -10 54 -36 70 -56 16 -21 55 -67 87 -104 57 -66 131 -198 181
-320 35 -87 75 -149 173 -264 46 -54 85 -110 89 -125 11 -55 36 -125 65 -189
28 -61 111 -269 165 -412 30 -78 99 -193 147 -241 77 -80 259 -138 346 -111
37 11 101 62 101 81 0 4 13 24 29 43 l29 37 22 -34 c37 -53 86 -81 142 -81 26
0 47 -2 45 -5 -20 -33 -69 -147 -81 -190 -18 -64 -36 -209 -36 -296 0 -99 73
-301 125 -346 32 -27 152 -87 191 -94 25 -5 50 2 103 26 73 34 87 50 71 79 -9
18 -66 31 -131 31 -45 0 -86 45 -137 149 l-47 96 0 155 c0 195 15 240 107 328
33 31 86 91 118 132 51 65 71 82 142 119 61 32 109 69 178 136 52 50 115 105
140 122 66 45 102 88 150 178 24 44 60 105 81 136 20 30 59 100 86 155 49 99
162 275 248 389 25 33 67 89 93 125 56 76 92 103 181 131 70 23 259 37 324 25
55 -10 87 -47 87 -100 0 -62 -27 -105 -140 -216 -103 -103 -215 -233 -242
-284 -48 -89 -101 -217 -148 -361 -46 -138 -138 -369 -160 -400 -4 -5 -22 -55
-41 -109 -61 -180 -218 -439 -390 -642 -37 -44 -87 -111 -110 -150 -23 -38
-70 -99 -104 -136 -98 -106 -110 -148 -110 -378 0 -183 1 -186 34 -280 18 -52
48 -126 67 -164 18 -38 32 -71 30 -73 -6 -7 -205 -43 -328 -60 -157 -21 -571
-24 -739 -4 l-117 13 -5 42 c-16 123 -50 279 -71 334 -14 35 -32 88 -41 119
-9 31 -32 94 -51 139 -19 46 -34 88 -34 94 0 5 26 -3 58 -19 31 -15 68 -32 82
-36 34 -10 153 -99 186 -138 35 -43 50 -50 74 -37 29 16 25 51 -15 106 -19 27
-47 68 -62 92 -131 201 -126 195 -223 265 -124 88 -290 254 -328 326 -66 127
-208 569 -263 821 -11 47 -28 121 -39 165 -11 44 -26 120 -35 169 -14 81 -20
95 -70 165 -30 42 -91 114 -135 161 -43 47 -93 110 -111 140 -17 30 -59 100
-92 155 -101 170 -162 352 -143 429 9 35 41 66 69 66 12 0 41 -9 63 -19z m579
-130 c177 -37 364 -66 578 -90 93 -11 171 -22 175 -25 3 -4 -17 -30 -45 -59
-65 -67 -163 -197 -163 -217 0 -9 -10 -2 -26 17 -30 39 -80 54 -179 57 -61 1
-77 -3 -119 -28 -74 -43 -120 -89 -156 -158 l-33 -62 -34 39 c-18 21 -61 79
-96 128 -34 49 -77 110 -95 135 -17 26 -44 77 -58 114 -14 37 -48 104 -75 149
-27 45 -49 83 -49 84 0 1 53 -11 118 -27 64 -15 180 -41 257 -57z m2675 5 c0
-2 -31 -16 -68 -30 -74 -29 -113 -64 -197 -176 -27 -36 -67 -86 -89 -111 -23
-25 -61 -84 -85 -130 -24 -46 -57 -102 -72 -125 -15 -22 -45 -78 -67 -125 -69
-147 -52 -158 -192 126 -67 136 -139 291 -160 344 -43 109 -43 109 44 110 117
2 595 66 786 105 71 15 100 18 100 12z m-4393 -133 c27 -38 93 -128 147 -202
76 -105 96 -138 89 -150 -20 -31 -26 -25 -156 143 -33 43 -50 44 -131 11 l-58
-24 6 52 c13 105 39 237 47 237 4 0 29 -30 56 -67z m3293 -35 c11 -24 20 -53
20 -66 0 -12 17 -57 38 -100 21 -42 49 -106 62 -142 13 -36 43 -99 66 -140 24
-41 62 -128 84 -194 l41 -118 -17 -44 c-10 -26 -30 -54 -48 -67 -36 -25 -135
-86 -137 -84 -1 1 -5 119 -8 262 -8 283 -14 317 -65 345 -25 13 -31 12 -69 -8
-23 -12 -71 -46 -107 -75 -48 -39 -65 -59 -65 -77 0 -35 32 -39 45 -6 11 30
77 66 121 66 l31 0 -9 -62 c-9 -71 -9 -204 2 -388 9 -162 1 -192 -69 -258 -74
-71 -155 -83 -191 -29 -19 29 -75 271 -85 370 -6 56 -17 93 -39 134 -19 34
-31 71 -31 93 0 21 -9 97 -21 171 -11 74 -21 177 -22 229 l-2 94 58 63 59 63
157 3 c86 1 162 4 169 5 7 1 22 -17 32 -40z m-612 -10 c7 -7 12 -39 12 -75 0
-41 6 -72 16 -88 10 -16 18 -65 24 -152 5 -70 12 -155 16 -189 7 -70 4 -75
-81 -126 -59 -35 -86 -71 -67 -90 8 -8 22 -7 53 8 25 11 65 19 98 19 l56 0 7
-55 c25 -177 72 -364 113 -453 34 -73 29 -97 -33 -159 -51 -52 -51 -52 -103
-38 -73 20 -168 151 -215 296 -23 72 -92 212 -134 274 -41 61 -70 249 -70 464
l0 169 78 79 c105 108 194 152 230 116z m3212 -91 l0 -72 -82 -102 c-46 -56
-86 -102 -90 -102 -5 -1 -8 29 -8 65 l0 66 88 109 c48 60 88 109 90 109 1 0 2
-33 2 -73z m-3701 -176 c39 -27 71 -129 83 -263 6 -65 8 -124 5 -131 -3 -8
-35 -22 -72 -32 -96 -26 -140 -74 -119 -129 9 -23 23 -20 92 15 58 30 62 31
111 19 55 -13 81 -43 81 -92 0 -13 16 -57 36 -98 57 -120 97 -378 66 -428 -28
-43 -154 -23 -265 43 -60 35 -71 47 -97 101 -16 34 -38 97 -50 140 -12 44 -30
104 -40 134 -10 30 -23 80 -29 110 -6 30 -29 102 -51 160 -65 177 -90 252 -90
277 0 55 60 133 130 169 69 35 163 37 209 5z m3835 -627 c9 -4 16 -18 16 -34
0 -44 24 -57 66 -37 84 41 175 -3 197 -94 16 -64 -52 -189 -102 -189 -29 0
-45 34 -29 60 7 11 16 20 19 20 3 0 14 18 24 39 34 77 -10 131 -81 98 -65 -32
-122 -19 -149 33 -19 37 -19 74 1 94 18 18 17 18 38 10z m21 -274 c24 -27 30
-105 12 -157 l-15 -43 44 -56 c49 -63 49 -63 30 -89 -23 -31 -56 -7 -123 91
-34 49 -72 94 -84 99 -17 7 -23 17 -21 32 2 12 -2 32 -8 44 -7 11 -9 32 -6 46
13 49 135 73 171 33z m-167 -301 c2 -14 -4 -31 -12 -39 -19 -15 -21 -47 -3
-53 6 -2 28 8 47 23 74 58 90 44 39 -34 l-32 -47 19 -35 c10 -18 20 -34 22
-34 3 0 20 13 38 30 58 50 86 15 41 -51 -54 -80 -108 -77 -163 9 -20 31 -52
74 -70 95 -38 42 -41 55 -18 103 30 63 86 83 92 33z m-110 -222 c2 -16 -6 -44
-18 -64 -33 -56 -18 -68 28 -22 22 21 45 39 52 39 18 0 3 -48 -26 -87 -24 -31
-24 -34 -9 -63 16 -31 29 -38 40 -20 9 14 82 60 95 60 22 0 7 -36 -42 -101
-43 -56 -58 -69 -81 -69 -21 0 -33 8 -48 35 -12 20 -41 65 -65 102 -24 37 -44
75 -44 86 0 10 13 35 29 55 16 20 32 47 36 60 10 34 49 26 53 -11z m-141 -182
c30 -21 57 -97 50 -140 -3 -19 -15 -48 -27 -65 l-21 -29 26 -40 c31 -46 30
-85 -1 -89 -17 -2 -40 19 -103 98 -44 55 -81 107 -81 114 0 8 7 19 15 26 8 7
15 23 15 36 0 32 18 77 37 92 23 16 64 15 90 -3z m-5354 -336 c47 -13 77 -41
77 -73 0 -33 -27 -40 -57 -16 -34 26 -81 26 -110 -2 -32 -30 -29 -48 17 -93
59 -58 51 -107 -15 -91 -32 8 -103 82 -110 116 -12 54 31 119 100 151 47 22
49 22 98 8z m5028 -100 c22 -22 69 -115 69 -136 0 -22 24 -14 53 17 33 34 87
43 87 13 0 -29 -50 -102 -80 -118 -39 -20 -83 -19 -102 3 -28 31 -87 205 -77
225 13 22 24 22 50 -4z m-4786 -139 c4 -13 -2 -33 -14 -54 l-21 -34 37 -22
c23 -13 42 -19 49 -14 56 43 64 46 79 34 8 -7 15 -18 15 -25 0 -7 -32 -51 -71
-97 -104 -121 -104 -121 -128 -113 -30 9 -27 44 9 94 17 23 28 46 26 50 -3 5
-19 14 -36 21 -28 11 -33 10 -54 -9 -26 -25 -39 -26 -56 -6 -20 24 -5 56 60
128 63 69 94 82 105 47z m4606 -2 c6 -7 27 -44 47 -83 39 -75 35 -72 115 -59
41 7 46 -3 23 -44 -30 -54 -108 -79 -139 -44 -23 25 -97 186 -97 209 0 34 28
45 51 21z m-124 -162 c35 -29 96 -156 91 -188 -2 -17 -11 -24 -30 -26 -25 -3
-31 3 -68 80 -23 46 -45 87 -51 93 -5 5 -9 19 -9 30 0 42 25 46 67 11z m-4197
-31 c16 -19 7 -43 -53 -139 -62 -100 -82 -119 -108 -106 -10 6 -19 21 -19 33
0 45 126 227 157 227 6 0 16 -7 23 -15z m4094 -77 c12 -29 39 -79 59 -110 44
-68 49 -108 13 -108 -15 0 -34 13 -53 35 l-28 34 -28 -24 c-24 -21 -26 -27
-16 -49 15 -32 5 -56 -23 -56 -17 0 -29 -12 -47 -46 -32 -59 -74 -94 -114 -94
-111 0 -176 156 -112 267 16 27 35 45 52 49 51 13 86 -38 39 -56 -66 -25 -53
-180 15 -180 11 0 29 18 45 45 15 26 36 48 49 51 l23 6 -30 64 c-38 82 -42
128 -11 132 17 3 27 -6 44 -40 12 -24 23 -45 25 -47 1 -2 16 6 33 18 30 21 30
22 15 63 -15 43 -18 81 -7 91 17 17 35 3 57 -45z m-3886 -101 c3 -21 -7 -43
-36 -80 l-39 -53 35 -24 c69 -49 84 -68 72 -90 -13 -25 -54 -26 -97 -2 -53 28
-103 80 -103 106 0 31 126 178 148 174 10 -2 18 -15 20 -31z m236 -147 c0 -19
-15 -63 -32 -97 l-31 -62 37 -18 c28 -14 37 -24 37 -43 0 -23 -3 -25 -50 -25
-63 1 -111 20 -119 48 -4 15 14 55 57 129 49 85 66 107 82 105 16 -2 20 -9 19
-37z m2974 -132 c18 -18 14 -67 -8 -104 -25 -39 -21 -42 62 -55 34 -6 68 -15
75 -21 22 -18 15 -47 -13 -54 -40 -10 -142 2 -171 21 l-26 17 8 -43 c16 -86
13 -104 -17 -107 -23 -3 -30 2 -43 35 -9 21 -28 82 -42 136 -20 76 -24 100
-14 110 9 9 16 9 31 0 16 -11 20 -9 25 7 16 50 103 88 133 58z m-2626 -44
c123 -21 168 -40 168 -69 0 -27 -23 -35 -77 -28 l-38 5 -24 -89 c-29 -107 -45
-135 -74 -131 -32 4 -33 43 -2 129 15 41 29 81 32 90 3 11 -9 19 -44 30 -47
15 -61 33 -49 65 7 17 -3 17 108 -2z m2352 -69 c94 -45 118 -168 45 -229 -71
-60 -169 -2 -169 101 0 43 17 112 32 131 14 16 53 15 92 -3z m-186 -27 c2 -13
-15 -29 -58 -55 -54 -34 -60 -41 -54 -63 8 -35 9 -35 47 -11 39 24 87 28 87 7
0 -26 -41 -66 -81 -77 -24 -8 -38 -17 -35 -24 2 -7 7 -32 11 -57 7 -48 -8 -74
-38 -62 -20 7 -33 49 -46 145 -6 41 -13 82 -16 90 -7 20 27 63 79 101 46 33
98 36 104 6z m-1868 -18 c10 -19 13 -19 40 -5 16 8 39 15 51 15 35 0 69 -38
69 -77 0 -45 -14 -69 -52 -89 l-31 -16 42 -25 c35 -21 42 -29 39 -51 -5 -40
-38 -39 -114 2 -75 42 -81 43 -89 15 -5 -15 -14 -19 -33 -17 -24 3 -27 7 -26
38 1 33 45 198 59 220 10 17 34 11 45 -10z m428 -106 c62 -12 42 -67 -23 -63
-46 2 -55 0 -55 -12 0 -7 9 -9 23 -6 27 7 95 -7 111 -23 18 -19 -22 -40 -77
-40 l-48 0 3 -32 c3 -30 6 -33 58 -43 100 -19 69 -65 -44 -65 -83 0 -90 10
-94 135 -5 132 6 155 72 155 24 0 57 -3 74 -6z m297 0 c24 -10 44 -56 65 -152
24 -108 25 -158 4 -166 -24 -9 -54 12 -61 45 -5 27 -9 29 -52 29 -38 0 -48 -4
-56 -22 -12 -29 -45 -36 -61 -14 -15 21 -6 55 41 167 42 99 74 130 120 113z
m663 -21 c4 -24 -27 -47 -51 -38 -7 3 -19 -1 -26 -8 -10 -12 -3 -20 39 -46 54
-33 70 -60 70 -118 0 -72 -94 -128 -179 -107 -31 8 -36 13 -36 39 0 29 1 30
58 35 97 9 111 57 31 100 -74 39 -89 97 -38 141 27 23 44 28 89 26 33 -2 41
-6 43 -24z m-295 -34 c67 -18 40 -69 -38 -69 -31 0 -35 -3 -31 -22 18 -92 28
-166 25 -183 -3 -13 -14 -21 -31 -23 -38 -4 -49 22 -55 134 -5 84 -8 94 -25
94 -33 0 -58 19 -58 45 0 13 6 26 13 28 23 10 162 7 200 -4z"/>
<path d="M2689 7468 c-38 -62 -230 -463 -241 -504 -14 -52 -6 -74 27 -74 15 0
35 -10 48 -25 32 -37 125 -53 214 -36 248 45 376 244 230 355 -19 15 -39 26
-45 26 -24 0 -21 20 8 52 33 35 49 79 42 115 -11 55 -98 101 -172 89 -28 -4
-40 -1 -53 14 -23 28 -34 25 -58 -12z m169 -79 c45 -15 46 -34 7 -78 -33 -36
-81 -64 -178 -105 -34 -15 -38 -20 -35 -49 4 -40 29 -46 93 -21 71 27 186 -1
198 -48 28 -104 -189 -205 -362 -168 l-59 12 13 37 c7 20 35 81 62 136 28 55
67 139 88 188 31 72 42 88 64 93 14 3 31 7 36 9 20 7 42 5 73 -6z"/>
<path d="M7309 7245 c-52 -19 -113 -59 -138 -91 -79 -101 -28 -251 92 -269 70
-11 113 9 189 85 l68 68 11 -42 c20 -79 27 -101 53 -165 14 -35 31 -91 37
-125 6 -34 15 -67 21 -73 13 -16 50 -17 66 -1 26 26 5 137 -52 277 -14 36 -35
117 -46 180 -20 121 -31 141 -76 141 -12 0 -41 7 -64 15 -51 18 -112 18 -161
0z m157 -89 c8 -20 -46 -95 -98 -140 -31 -27 -51 -36 -79 -36 -41 0 -56 13
-65 57 -7 37 32 88 91 114 49 23 143 26 151 5z"/>
<path d="M3280 7233 c-14 -2 -45 -11 -69 -20 -40 -14 -44 -14 -53 1 -15 26
-38 18 -53 -18 -24 -57 -117 -438 -119 -486 -1 -40 2 -45 23 -48 34 -5 42 8
61 95 15 71 19 78 42 81 23 3 32 -8 89 -103 68 -114 115 -165 153 -165 31 0
41 27 21 54 -31 42 -155 230 -155 235 0 4 25 19 55 35 68 35 147 119 163 173
15 51 15 58 -3 97 -24 49 -89 78 -155 69z m74 -89 c20 -19 20 -28 0 -70 -30
-63 -151 -143 -218 -144 -24 0 -27 3 -23 23 3 12 11 49 17 83 7 34 15 66 19
73 11 17 111 50 153 51 20 0 44 -7 52 -16z"/>
<path d="M3654 7028 c-84 -58 -128 -143 -153 -298 -24 -145 -5 -247 54 -299
126 -111 292 39 313 284 12 140 -9 260 -54 315 -37 43 -94 42 -160 -2z m115
-85 c19 -70 23 -168 12 -242 -27 -171 -136 -277 -186 -181 -31 60 -11 270 34
359 24 46 84 101 111 101 14 0 22 -11 29 -37z"/>
<path d="M6545 6939 c-102 -54 -152 -116 -161 -196 -4 -38 -1 -55 16 -81 32
-52 76 -65 191 -57 90 7 98 6 118 -14 46 -46 11 -123 -71 -156 -24 -10 -81
-21 -127 -26 -91 -8 -117 -23 -107 -57 9 -27 36 -35 121 -35 209 2 349 157
275 304 -35 68 -67 80 -198 77 -92 -2 -114 0 -122 12 -11 17 -5 44 16 77 18
28 97 83 121 83 24 0 63 28 63 45 0 46 -71 58 -135 24z"/>
<path d="M4562 6892 c-35 -48 -48 -104 -116 -502 -17 -102 -30 -193 -28 -202
5 -28 43 -34 63 -10 15 19 21 20 55 10 89 -24 211 13 327 101 84 63 107 126
68 185 -22 33 -92 83 -128 92 -23 6 -21 10 36 69 67 70 85 119 60 164 -25 45
-71 48 -190 13 -57 -17 -105 -29 -106 -28 -2 1 3 28 9 60 11 48 10 59 -2 66
-22 14 -27 13 -48 -18z m258 -151 c0 -31 -209 -168 -244 -159 -8 2 -9 17 -3
54 l8 52 67 20 c137 43 172 49 172 33z m-37 -265 c18 -7 42 -23 55 -35 30 -30
19 -49 -62 -99 -85 -54 -154 -76 -213 -68 -26 3 -47 7 -49 9 -3 3 26 180 31
185 22 22 192 28 238 8z"/>
<path d="M6202 6904 c-11 -20 5 -135 21 -152 30 -29 57 7 57 76 0 68 -53 120
-78 76z"/>
<path d="M5794 6821 c-80 -58 -113 -116 -134 -230 -20 -114 9 -222 76 -280
124 -109 315 -23 370 168 21 71 7 137 -45 218 -34 53 -102 113 -127 113 -6 0
-19 9 -29 20 -25 28 -65 25 -111 -9z m118 -95 c57 -37 108 -125 108 -186 0
-120 -135 -222 -218 -164 -45 31 -66 115 -51 207 22 138 85 193 161 143z"/>
<path d="M5130 6826 c-13 -17 -35 -105 -45 -186 -4 -30 -15 -99 -26 -153 -23
-114 -26 -211 -9 -232 16 -19 54 -19 69 -1 6 7 14 43 18 79 3 36 9 71 14 78
11 19 67 -6 185 -83 192 -125 314 -161 314 -93 0 27 -30 50 -113 88 -70 32
-227 133 -227 146 0 5 9 12 19 16 30 9 104 89 129 138 12 25 22 63 22 87 0 37
-5 48 -39 80 -64 61 -133 61 -218 -1 l-43 -30 0 28 c0 27 -15 53 -31 53 -4 0
-12 -6 -19 -14z m238 -92 c27 -19 28 -40 3 -79 -39 -65 -105 -111 -187 -131
-33 -8 -31 12 5 84 28 55 75 108 116 130 27 15 37 15 63 -4z"/>
<path d="M2060 6080 c0 -5 5 -10 10 -10 6 0 10 5 10 10 0 6 -4 10 -10 10 -5 0
-10 -4 -10 -10z"/>
<path d="M8238 4613 c-10 -2 -18 -7 -18 -9 0 -12 30 -62 45 -74 15 -12 16 -9
13 35 -3 49 -9 56 -40 48z"/>
<path d="M7847 3894 c-9 -9 -9 -61 -1 -91 8 -31 32 -29 40 3 12 45 -17 110
-39 88z"/>
<path d="M6172 2503 c3 -57 3 -58 33 -58 40 0 45 34 13 81 -35 52 -50 45 -46
-23z"/>
<path d="M4235 2508 c-22 -13 -46 -41 -40 -47 11 -10 65 23 65 40 0 22 1 22
-25 7z"/>
<path d="M4861 2388 c-1 -4 -10 -30 -21 -58 l-20 -50 30 0 c27 0 30 3 29 33
-1 29 -16 91 -18 75z"/>
</g>
</svg>
