<?xml version="1.0" standalone="no"?>
<!DOCTYPE svg PUBLIC "-//W3C//DTD SVG 20010904//EN"
 "http://www.w3.org/TR/2001/REC-SVG-20010904/DTD/svg10.dtd">
<svg version="1.0" xmlns="http://www.w3.org/2000/svg"
 width="300.000000pt" height="300.000000pt" viewBox="0 0 300.000000 300.000000"
 preserveAspectRatio="xMidYMid meet">
<metadata>
Created by potrace 1.10, written by Peter Selinger 2001-2011
</metadata>
<g transform="translate(0.000000,300.000000) scale(0.100000,-0.100000)"
fill="#000000" stroke="none">
<path d="M2086 2349 c-47 -37 -60 -76 -60 -169 1 -136 34 -327 55 -315 5 4 9
2 9 -4 0 -15 20 -64 25 -60 2 3 -3 49 -11 104 -21 140 -31 282 -23 334 19 131
174 113 235 -26 18 -39 28 -53 36 -45 17 17 -29 97 -88 152 -49 46 -57 50
-102 50 -35 0 -57 -6 -76 -21z m44 -9 c-20 -13 -33 -13 -25 0 3 6 14 10 23 10
15 0 15 -2 2 -10z m-54 -48 c-18 -16 -18 -16 -6 6 6 13 14 21 18 18 3 -4 -2
-14 -12 -24z m-19 -164 c-2 -13 -4 -5 -4 17 -1 22 1 32 4 23 2 -10 2 -28 0
-40z m20 -175 c-3 -10 -5 -4 -5 12 0 17 2 24 5 18 2 -7 2 -21 0 -30z"/>
<path d="M2437 2188 c-52 -56 -80 -105 -117 -208 -13 -36 -28 -68 -34 -72 -14
-9 -26 0 -26 20 0 9 -5 34 -11 56 -8 28 -14 35 -21 28 -8 -8 -8 -36 1 -99 7
-48 15 -94 17 -100 2 -7 -7 -47 -21 -90 -36 -119 -38 -134 -20 -127 8 4 15 9
16 13 0 3 2 20 5 36 2 17 12 61 22 100 14 48 17 78 11 99 -10 33 -3 50 17 42
8 -3 14 -1 14 4 0 6 7 10 15 10 8 0 15 8 15 18 0 10 7 28 16 40 8 12 13 22 9
22 -3 0 1 14 10 30 9 17 13 30 10 30 -8 0 57 102 85 133 31 36 54 49 73 41 12
-4 13 -11 5 -35 -6 -17 -7 -56 -3 -92 3 -34 7 -66 7 -72 0 -20 -14 -110 -19
-125 -4 -8 -5 -18 -5 -22 1 -4 -4 -25 -12 -45 -8 -21 -17 -58 -20 -83 -3 -25
-14 -63 -26 -85 -11 -21 -20 -53 -20 -69 0 -16 -3 -26 -7 -23 -8 9 -59 -118
-69 -170 -4 -21 -15 -55 -25 -75 -11 -21 -19 -48 -19 -61 0 -12 -18 -60 -40
-105 -22 -44 -40 -84 -40 -87 0 -22 -110 -171 -153 -207 -73 -62 -223 -161
-282 -187 -27 -12 -73 -33 -100 -46 -67 -33 -139 -33 -178 -1 -29 23 -29 24
-15 72 11 40 18 49 43 56 43 11 93 60 169 162 36 49 66 85 66 80 0 -15 -88
-143 -136 -198 -24 -27 -41 -53 -38 -58 3 -5 2 -7 -3 -6 -4 2 -8 -1 -8 -7 0
-15 10 -10 124 58 117 70 241 180 306 272 154 216 197 489 106 682 -87 184
-221 275 -406 277 -83 1 -96 -2 -157 -32 -131 -64 -195 -179 -186 -336 6 -104
39 -177 109 -240 96 -86 221 -99 354 -37 39 18 64 35 57 38 -7 3 -21 -1 -30
-9 -35 -30 -184 -60 -223 -45 -13 5 -36 10 -51 12 -57 8 -148 91 -169 155 -6
19 -16 40 -21 46 -5 7 -11 41 -15 77 -11 124 46 245 146 308 67 43 70 35 8
-16 -137 -111 -167 -316 -66 -453 99 -134 340 -147 438 -23 36 45 65 146 54
189 -5 21 -23 32 -23 14 0 -5 -18 -36 -39 -70 -46 -71 -95 -101 -177 -109 -47
-5 -59 -2 -93 20 -22 15 -53 48 -68 74 -53 91 -32 220 47 286 63 53 155 60
198 14 11 -12 22 -26 24 -32 2 -5 7 -9 12 -7 5 2 6 -4 2 -13 -4 -11 -2 -14 6
-9 8 5 9 2 5 -10 -5 -11 -3 -15 5 -10 8 5 9 2 5 -10 -4 -11 -3 -15 4 -10 8 4
9 -1 4 -17 -5 -19 -4 -21 5 -9 8 12 10 6 6 -25 -5 -33 -4 -36 4 -15 7 19 8 10
4 -32 -6 -68 5 -75 31 -18 20 44 39 51 55 21 24 -45 3 -184 -35 -229 -13 -15
-26 -46 -30 -67 -18 -103 -50 -198 -94 -287 -27 -53 -51 -95 -54 -92 -2 3 -28
-26 -58 -63 -98 -126 -156 -177 -210 -185 -17 -2 -31 -18 -52 -58 l-28 -56 27
-51 c32 -62 52 -83 85 -84 24 -1 80 16 109 32 8 5 25 13 38 19 12 5 42 19 66
30 25 11 48 20 52 20 4 0 15 6 23 14 9 7 58 35 109 62 174 90 280 198 363 370
53 110 82 209 101 347 7 48 16 87 20 87 4 0 5 15 2 33 -4 21 -3 28 4 19 7 -10
11 -2 16 28 4 23 14 56 23 74 9 17 30 83 46 146 26 98 30 135 31 251 1 94 5
141 14 151 10 13 10 19 -3 32 -31 30 -66 20 -118 -36z m-589 -210 c79 -32 112
-49 112 -58 0 -6 5 -10 12 -10 14 0 118 -109 118 -124 0 -5 8 -28 19 -50 63
-139 73 -251 35 -399 -22 -84 -54 -167 -65 -167 -5 0 -8 -4 -6 -9 4 -17 -82
-137 -147 -203 -60 -61 -188 -156 -240 -179 -11 -5 -31 -16 -43 -25 -36 -26
-27 -10 31 57 50 57 148 216 201 328 24 49 59 169 69 236 4 21 18 63 32 91 60
122 42 279 -26 236 -17 -10 -21 -10 -24 0 -3 7 -10 31 -17 53 -22 71 -80 148
-124 165 -88 33 -185 -17 -240 -125 -28 -54 -27 -164 2 -220 39 -75 144 -135
201 -114 13 5 33 9 44 9 33 0 86 47 130 114 l40 61 -6 -58 c-7 -67 -14 -84
-59 -130 -53 -56 -96 -70 -196 -65 -129 7 -192 47 -243 155 -18 37 -23 66 -23
123 0 65 5 85 33 141 35 72 136 172 182 182 36 8 167 -2 198 -15z m539 -570
c-9 -35 -25 -101 -36 -148 -25 -103 -53 -178 -86 -230 -14 -22 -25 -43 -25
-48 0 -4 -8 -17 -17 -28 -10 -11 -34 -40 -52 -64 -19 -25 -40 -48 -45 -52 -6
-3 -28 -22 -50 -41 -21 -19 -79 -56 -130 -82 -50 -26 -102 -55 -116 -64 -14
-10 -44 -23 -67 -31 -23 -7 -40 -16 -38 -20 3 -4 -8 -10 -24 -13 -16 -3 -35
-12 -42 -19 -8 -8 -40 -20 -71 -27 -48 -12 -60 -12 -73 -1 -20 16 -49 70 -38
70 5 0 2 4 -6 9 -10 6 -12 19 -7 45 9 45 27 58 20 14 -8 -45 37 -88 98 -95 37
-4 59 3 168 55 69 33 137 68 151 79 15 10 53 35 85 57 94 62 143 107 185 170
21 32 39 61 39 64 0 3 12 21 27 40 15 20 21 32 15 28 -7 -4 -1 13 13 39 28 50
53 113 60 154 2 14 14 45 25 68 11 23 20 47 20 53 0 17 24 89 28 85 3 -2 -3
-32 -11 -67z"/>
<path d="M624 2196 c-3 -8 -4 -24 -2 -36 2 -17 5 -14 14 14 10 34 0 53 -12 22z"/>
<path d="M657 2203 c-18 -17 1 -441 23 -524 11 -41 32 -55 50 -34 8 10 8 45 1
132 -6 65 -11 127 -12 138 -1 12 -4 6 -9 -13 -4 -18 -6 -81 -4 -140 5 -115 -9
-126 -21 -18 -3 34 -8 77 -11 97 -8 59 -8 328 -1 336 4 3 7 -5 7 -18 0 -14 5
-30 11 -36 8 -8 9 -20 1 -40 -11 -34 7 -69 32 -60 11 4 21 -4 32 -26 22 -42
118 -160 172 -212 23 -23 42 -44 42 -47 0 -3 -18 -1 -40 4 -40 11 -128 88
-122 109 1 6 -3 7 -9 3 -9 -5 -10 -2 -6 10 4 9 3 15 -2 11 -5 -3 -19 11 -31
30 -12 20 -25 34 -28 31 -7 -7 41 -79 95 -143 48 -56 108 -87 148 -77 36 9 31
22 -23 74 -52 49 -202 233 -202 247 0 4 4 2 9 -6 12 -19 48 -9 107 31 57 39
85 81 67 99 -7 7 -36 14 -65 17 -45 3 -62 -1 -110 -27 l-58 -30 0 38 c0 26 -5
41 -16 45 -19 7 -19 7 -27 -1z m213 -62 c0 -6 -4 -13 -10 -16 -5 -3 -10 -10
-10 -16 0 -5 9 -4 20 3 11 7 18 19 15 25 -2 7 3 13 11 13 25 0 12 -30 -24 -58
-23 -18 -31 -20 -26 -8 8 20 -4 21 -25 2 -9 -7 -38 -23 -64 -34 l-48 -21 3 26
c2 20 16 34 63 59 60 34 95 43 95 25z"/>
<path d="M387 2186 c-27 -7 -53 -18 -59 -24 -24 -24 -12 -242 25 -442 12 -64
12 -65 47 -68 66 -5 180 105 180 173 0 34 -29 68 -69 80 l-23 7 28 18 c57 35
87 76 91 127 4 38 1 53 -16 74 -41 53 -127 75 -204 55z m36 -23 c-7 -2 -21 -2
-30 0 -10 3 -4 5 12 5 17 0 24 -2 18 -5z m81 0 c4 -5 11 -8 16 -8 5 0 22 -10
39 -23 25 -18 31 -30 31 -60 0 -35 -31 -102 -47 -102 -5 0 -21 -11 -36 -25
-23 -22 -25 -29 -16 -46 6 -12 13 -18 16 -16 9 10 53 -37 53 -57 0 -43 -82
-136 -118 -136 -7 0 -12 -4 -12 -10 0 -5 -11 -10 -24 -10 -31 0 -34 10 -56
170 -20 142 -21 293 -2 312 15 15 28 3 16 -14 -10 -14 -10 -47 0 -113 13 -88
17 -103 32 -109 22 -9 90 39 120 84 34 51 29 113 -11 147 -14 13 -22 23 -17
23 5 0 12 -3 16 -7z m-2 -43 c25 -25 29 -36 24 -60 -8 -43 -33 -77 -82 -110
-51 -35 -50 -36 -60 93 l-7 95 29 5 c58 8 66 6 96 -23z"/>
<path d="M408 1893 c-17 -20 -32 -83 -20 -83 13 0 12 -43 -1 -59 -10 -12 -9
-14 5 -8 11 4 18 0 21 -11 8 -31 6 62 -2 106 -8 42 -8 42 21 42 83 0 92 -64
19 -144 -21 -23 -22 -27 -6 -18 30 15 51 43 64 84 15 47 2 74 -44 94 -42 17
-39 18 -57 -3z"/>
<path d="M457 1785 c-9 -19 -15 -35 -12 -35 7 0 37 61 33 66 -3 2 -12 -12 -21
-31z"/>
<path d="M501 2064 c0 -11 3 -14 6 -6 3 7 2 16 -1 19 -3 4 -6 -2 -5 -13z"/>
<path d="M476 2003 c-6 -14 -5 -15 5 -6 7 7 10 15 7 18 -3 3 -9 -2 -12 -12z"/>
<path d="M445 1980 c-3 -5 -1 -10 4 -10 6 0 11 5 11 10 0 6 -2 10 -4 10 -3 0
-8 -4 -11 -10z"/>
<path d="M1033 2158 c-11 -13 -26 -39 -32 -58 -16 -44 -26 -237 -14 -267 5
-14 8 18 8 90 0 133 7 173 40 221 28 41 27 46 -2 14z"/>
<path d="M1065 2158 c-35 -31 -55 -112 -56 -225 0 -144 29 -221 97 -249 70
-29 132 -8 157 53 8 21 18 76 22 123 11 137 -21 260 -74 283 -14 7 -32 17 -39
24 -22 21 -78 16 -107 -9z m32 -15 c-9 -9 -19 -14 -23 -11 -10 10 6 28 24 28
15 0 15 -1 -1 -17z m77 -4 c14 -11 26 -17 26 -13 0 16 40 -40 50 -71 13 -39
18 -226 7 -276 -8 -38 -39 -79 -61 -79 -10 0 -9 12 5 53 14 40 17 79 16 172
-3 143 -16 184 -66 214 -20 11 -29 21 -20 21 9 0 28 -9 43 -21z m14 -74 c21
-64 25 -147 12 -238 -14 -100 -27 -125 -57 -109 -52 28 -79 204 -52 348 6 32
13 63 16 67 11 18 68 -30 81 -68z m-117 29 c-2 -16 -4 -81 -5 -144 -1 -121 19
-211 53 -237 20 -15 11 -16 -24 -3 -47 18 -69 87 -70 215 0 113 19 209 39 202
6 -2 9 -17 7 -33z"/>
<path d="M1156 2087 c3 -10 9 -15 12 -12 3 3 0 11 -7 18 -10 9 -11 8 -5 -6z"/>
<path d="M1171 2034 c0 -11 3 -14 6 -6 3 7 2 16 -1 19 -3 4 -6 -2 -5 -13z"/>
<path d="M1182 1940 c-1 -41 -4 -93 -7 -115 l-5 -40 10 33 c6 18 9 70 7 115
l-3 82 -2 -75z"/>
<path d="M1161 1764 c0 -11 3 -14 6 -6 3 7 2 16 -1 19 -3 4 -6 -2 -5 -13z"/>
<path d="M295 2160 c-7 -12 -8 -200 -1 -207 3 -3 6 45 8 106 2 61 2 111 1 111
-1 0 -5 -4 -8 -10z"/>
<path d="M630 1922 l5 -67 3 59 c2 32 -1 63 -5 67 -4 4 -6 -22 -3 -59z"/>
<path d="M302 1900 c-1 -14 3 -43 7 -65 6 -26 9 -31 9 -15 1 14 -3 43 -7 65
-6 26 -9 31 -9 15z"/>
<path d="M643 1780 c0 -41 2 -58 4 -37 2 20 2 54 0 75 -2 20 -4 3 -4 -38z"/>
<path d="M1001 1784 c0 -11 3 -14 6 -6 3 7 2 16 -1 19 -3 4 -6 -2 -5 -13z"/>
<path d="M323 1755 c0 -22 2 -30 4 -17 2 12 2 30 0 40 -3 9 -5 -1 -4 -23z"/>
<path d="M331 1700 c0 -8 4 -22 9 -30 12 -18 12 -2 0 25 -6 13 -9 15 -9 5z"/>
<path d="M651 1690 c0 -8 4 -22 9 -30 12 -18 12 -2 0 25 -6 13 -9 15 -9 5z"/>
<path d="M731 1373 c1 -100 6 -93 11 15 2 39 0 72 -4 72 -4 0 -7 -39 -7 -87z"/>
<path d="M763 1283 c7 -193 29 -400 47 -433 13 -24 48 -27 57 -4 8 22 -17 268
-29 285 -7 10 -8 2 -4 -23 2 -21 0 -40 -5 -44 -5 -3 -7 -9 -4 -14 13 -21 28
-200 17 -200 -20 0 -33 51 -36 142 -1 14 -4 24 -7 22 -6 -4 -15 111 -24 323
-2 52 0 95 6 98 5 4 9 -6 9 -20 0 -14 4 -24 9 -21 12 8 21 -31 14 -64 -7 -37
13 -73 37 -67 13 3 18 0 18 -12 -1 -9 20 -47 46 -85 25 -39 48 -78 52 -88 3
-10 10 -18 15 -18 5 0 9 -5 9 -11 0 -11 61 -101 107 -158 l28 -34 -40 6 c-38
6 -53 18 -115 94 -9 10 -37 58 -63 106 -27 48 -50 87 -52 87 -10 0 21 -67 66
-141 27 -45 46 -86 42 -92 -3 -5 -2 -7 4 -4 5 4 23 -8 39 -25 35 -37 83 -59
112 -51 32 8 28 23 -28 98 -28 38 -80 116 -117 174 -36 58 -72 113 -80 122
-12 15 -9 19 29 39 57 29 118 89 118 116 0 29 -18 42 -65 49 -32 5 -51 1 -97
-23 -54 -27 -58 -27 -58 -10 0 31 -19 58 -42 58 -21 0 -21 -1 -15 -177z m217
106 c0 -25 -49 -73 -101 -100 -21 -10 -41 -19 -44 -19 -3 0 -5 15 -5 33 0 38
26 68 80 91 50 22 70 20 70 -5z m21 -42 c-18 -18 -22 -2 -9 34 l13 34 3 -29
c2 -16 -1 -33 -7 -39z"/>
<path d="M370 1416 c-6 -6 -9 -50 -8 -100 l2 -91 5 92 c3 50 9 95 14 99 4 4 7
-42 7 -102 0 -111 22 -327 41 -396 7 -28 16 -39 36 -44 31 -8 54 16 46 46 -4
13 1 22 13 26 103 32 169 81 185 133 17 56 -1 94 -55 121 -50 24 -67 24 -121
6 -22 -8 -41 -10 -43 -5 -2 5 -7 7 -11 4 -5 -2 -12 32 -18 76 l-9 80 34 21
c27 17 38 19 58 9 37 -16 31 -56 -17 -120 -22 -29 -38 -56 -35 -59 3 -3 7 -3
9 -1 2 2 17 22 33 44 42 55 60 103 45 118 -20 20 -12 31 10 11 26 -24 20 -59
-21 -115 -16 -23 -27 -45 -24 -48 7 -8 56 49 80 94 15 29 16 38 5 58 -28 52
-103 72 -161 42 -17 -9 -30 -11 -30 -6 0 13 -58 19 -70 7z m82 -26 c7 0 6 -5
-2 -14 -6 -8 -10 -34 -9 -58 2 -24 -1 -50 -6 -57 -5 -9 -4 -12 2 -8 14 9 24
-33 28 -119 4 -83 23 -154 42 -154 7 0 35 12 63 28 40 22 52 35 64 69 13 38
13 45 -4 77 -17 35 -17 36 1 36 10 0 19 -4 19 -9 0 -5 9 -11 20 -14 17 -4 20
-14 20 -54 0 -58 -13 -73 -105 -116 -33 -16 -67 -32 -75 -36 -8 -5 -17 -21
-20 -37 -6 -34 -25 -42 -39 -16 -13 24 -39 218 -45 335 -6 116 0 161 21 153 8
-4 19 -6 25 -6z m164 -234 c11 -18 14 -36 10 -60 -7 -38 -24 -55 -82 -85 l-42
-20 -6 32 c-3 18 -8 59 -12 92 l-6 60 60 3 c56 3 62 1 78 -22z"/>
<path d="M602 1120 c-1 -20 -7 -41 -14 -48 -6 -6 -9 -14 -6 -18 12 -11 29 37
25 69 l-4 32 -1 -35z"/>
<path d="M1142 1407 c-15 -17 -42 -98 -41 -122 0 -11 8 5 17 35 10 30 23 65
30 78 14 24 11 29 -6 9z"/>
<path d="M1166 1398 c-28 -43 -50 -149 -50 -243 0 -112 23 -193 68 -242 29
-32 40 -37 90 -41 62 -5 85 7 112 60 25 47 36 160 25 240 -26 181 -59 223
-191 244 -33 5 -40 3 -54 -18z m74 -26 c16 -6 36 -24 44 -41 43 -83 59 -256
31 -347 -24 -79 -31 -84 -64 -47 -53 57 -77 240 -50 377 9 43 9 60 0 69 -8 8
-11 3 -11 -21 0 -18 -4 -32 -9 -32 -5 0 -9 -10 -9 -22 1 -13 1 -70 0 -128 -1
-126 1 -159 9 -155 3 2 14 -21 24 -51 10 -30 24 -54 31 -54 6 0 14 -6 17 -14
5 -12 1 -13 -26 -2 -49 20 -87 103 -94 205 -6 81 12 227 28 237 5 3 9 14 9 24
0 24 33 46 38 25 2 -7 16 -18 32 -23z m94 -22 c30 -37 49 -97 50 -162 1 -27 5
-48 10 -48 14 0 -4 -141 -24 -187 -12 -27 -28 -47 -45 -53 -36 -14 -37 -13
-21 13 27 40 47 152 41 225 -8 80 -41 200 -62 225 -15 16 -14 17 5 17 11 0 32
-14 46 -30z"/>
<path d="M1287 1260 c10 -46 10 -247 0 -285 -6 -26 -5 -25 7 5 20 48 20 212 1
270 -11 32 -13 35 -8 10z"/>
<path d="M1390 1378 c0 -7 4 -19 9 -27 7 -10 9 -7 8 12 -2 26 -17 39 -17 15z"/>
<path d="M1420 1375 c0 -19 22 -68 35 -77 5 -4 16 -8 24 -8 18 0 7 57 -16 82
-19 22 -43 24 -43 3z"/>
<path d="M531 1317 c-8 -12 -21 -32 -29 -44 -8 -13 -12 -23 -10 -23 8 0 61 80
57 85 -3 2 -11 -6 -18 -18z"/>
<path d="M743 1200 c0 -36 2 -50 4 -32 2 17 2 47 0 65 -2 17 -4 3 -4 -33z"/>
<path d="M1088 1208 c-2 -29 0 -73 3 -98 5 -33 7 -19 8 53 1 104 -5 130 -11
45z"/>
<path d="M1530 1220 c-8 -5 -23 -7 -32 -4 -29 9 -44 -36 -25 -72 l16 -29 -6
41 c-3 23 -1 44 4 47 4 3 8 -12 8 -34 0 -34 7 -45 52 -86 48 -45 51 -51 51
-95 -1 -27 -5 -48 -9 -48 -5 0 -6 8 -2 18 6 15 3 14 -17 -3 -13 -11 -21 -15
-18 -10 10 17 -47 79 -66 72 -24 -10 -19 -35 13 -68 23 -23 38 -29 71 -29 33
0 48 6 71 29 46 46 40 78 -26 142 -35 34 -55 62 -55 77 0 19 3 21 19 12 25
-13 81 -13 81 0 0 16 -62 50 -90 50 -14 0 -32 -5 -40 -10z m70 -21 c0 -5 -5
-7 -10 -4 -21 13 -47 -5 -48 -33 0 -23 41 -88 50 -80 2 2 14 -7 28 -20 29 -27
34 -71 9 -96 -19 -19 -19 -19 -19 30 0 47 -3 53 -50 98 -53 51 -64 87 -32 105
23 14 72 14 72 0z m-73 -245 c-4 -4 -14 1 -22 12 -22 29 -18 41 7 17 12 -13
19 -26 15 -29z"/>
<path d="M791 1204 c0 -11 3 -14 6 -6 3 7 2 16 -1 19 -3 4 -6 -2 -5 -13z"/>
<path d="M373 1145 c0 -22 2 -30 4 -17 2 12 2 30 0 40 -3 9 -5 -1 -4 -23z"/>
<path d="M383 1060 c0 -25 2 -35 4 -22 2 12 2 32 0 45 -2 12 -4 2 -4 -23z"/>
<path d="M752 1045 c0 -16 2 -22 5 -12 2 9 2 23 0 30 -3 6 -5 -1 -5 -18z"/>
<path d="M1101 1040 c0 -8 4 -24 9 -35 5 -13 9 -14 9 -5 0 8 -4 24 -9 35 -5
13 -9 14 -9 5z"/>
<path d="M1445 1010 c-3 -5 0 -19 8 -30 14 -19 14 -19 13 10 -1 30 -10 38 -21
20z"/>
<path d="M392 985 c0 -16 2 -22 5 -12 2 9 2 23 0 30 -3 6 -5 -1 -5 -18z"/>
<path d="M762 975 c0 -22 4 -53 8 -70 7 -27 8 -28 8 -5 0 14 -3 45 -7 70 l-8
45 -1 -40z"/>
<path d="M400 931 c0 -11 4 -22 9 -25 4 -3 6 6 3 19 -5 30 -12 33 -12 6z"/>
<path d="M780 861 c0 -5 5 -13 10 -16 6 -3 10 -2 10 4 0 5 -4 13 -10 16 -5 3
-10 2 -10 -4z"/>
</g>
</svg>
